<?xml version="1.0" encoding="UTF-8"?><svg id="a" xmlns="http://www.w3.org/2000/svg" viewBox="0 0 61.07 61.07"><g><polyline points="51.96 9.11 30.53 30.53 9.11 9.11" style="fill:none; stroke:#000; stroke-miterlimit:10; stroke-width:7px;"/><polygon points="61.07 21.05 40.02 0 61.07 0 61.07 21.05"/><polygon points="0 21.05 21.05 0 0 0 0 21.05"/></g><g><polyline points="51.96 9.11 30.53 30.53 9.11 9.11" style="fill:none; stroke:#000; stroke-miterlimit:10; stroke-width:7px;"/><polygon points="61.07 21.05 40.02 0 61.07 0 61.07 21.05"/><polygon points="0 21.05 21.05 0 0 0 0 21.05"/></g><g><polyline points="51.96 51.96 30.53 30.53 9.11 51.96" style="fill:none; stroke:#000; stroke-miterlimit:10; stroke-width:7px;"/><polygon points="40.02 61.07 61.07 40.02 61.07 61.07 40.02 61.07"/><polygon points="21.05 61.07 0 40.02 0 61.07 21.05 61.07"/></g></svg>